<svg xmlns="http://www.w3.org/2000/svg" width="1200" height="675" viewBox="0 0 1200 675" role="img" aria-label="Macuco, Santos - TVs e micro-ondas">
  <defs>
    <linearGradient id="bg-local" x1="0" x2="1" y1="0" y2="1">
      <stop offset="0" stop-color="#07111f"/>
      <stop offset="0.52" stop-color="#12314a"/>
      <stop offset="1" stop-color="#eef7ff"/>
    </linearGradient>
    <radialGradient id="glow" cx="62%" cy="34%" r="60%">
      <stop offset="0" stop-color="#0891b2" stop-opacity="0.34"/>
      <stop offset="1" stop-color="#0891b2" stop-opacity="0"/>
    </radialGradient>
    <pattern id="grid" width="38" height="38" patternUnits="userSpaceOnUse">
      <path d="M38 0H0V38" fill="none" stroke="#ffffff" stroke-opacity="0.08" stroke-width="1"/>
    </pattern>
    <filter id="shadow" x="-20%" y="-20%" width="140%" height="140%">
      <feDropShadow dx="0" dy="18" stdDeviation="18" flood-color="#020617" flood-opacity="0.28"/>
    </filter>
  </defs>
  <rect width="1200" height="675" fill="url(#bg-local)"/>
  <rect width="1200" height="675" fill="url(#grid)"/>
  <circle cx="820" cy="180" r="320" fill="url(#glow)"/>
  <circle cx="1080" cy="90" r="120" fill="#22c55e" opacity="0.20"/>
  <circle cx="95" cy="575" r="190" fill="#0891b2" opacity="0.16"/>
  <g filter="url(#shadow)">
    <rect x="238" y="130" width="420" height="390" rx="38" fill="#f8fafc"/>
    <path d="M300 430c64-98 136-166 222-230 66 48 102 104 96 170-7 78-76 135-166 146-58 7-106-20-152-86z" fill="#dbeafe" stroke="#7dd3fc" stroke-width="8"/>
    <path d="M474 218c-58 0-104 46-104 104 0 86 104 168 104 168s104-82 104-168c0-58-46-104-104-104z" fill="#0891b2"/>
    <circle cx="474" cy="324" r="38" fill="#ffffff"/>
  </g>
  <g transform="translate(706 168)" filter="url(#shadow)">
    <rect width="304" height="230" rx="30" fill="#ffffff" opacity="0.96"/>
    <path d="M42 68h220M42 112h180M42 156h136" stroke="#334155" stroke-width="12" stroke-linecap="round" opacity="0.74"/>
    <rect x="42" y="184" width="118" height="18" rx="9" fill="#22c55e"/>
  </g>
  <g transform="translate(74 68)">
    <rect width="176" height="48" rx="14" fill="#ffffff" opacity="0.94"/>
    <circle cx="31" cy="24" r="13" fill="#0891b2"/>
    <path d="M55 18h88M55 30h66" stroke="#0f172a" stroke-width="7" stroke-linecap="round" opacity="0.88"/>
  </g>
  <g transform="translate(74 524)">
    <text font-family="Arial, Helvetica, sans-serif" font-size="48" font-weight="800" fill="#ffffff">Macuco, Santos</text>
    <text y="42" font-family="Arial, Helvetica, sans-serif" font-size="24" font-weight="600" fill="#dbeafe">TVs e micro-ondas</text>
  </g>
  <g transform="translate(835 515)">
    <rect width="286" height="72" rx="24" fill="#ffffff" opacity="0.94"/>
    <text x="32" y="45" font-family="Arial, Helvetica, sans-serif" font-size="24" font-weight="800" fill="#0f172a">Atendimento local</text>
  </g>
</svg>
