<svg xmlns="http://www.w3.org/2000/svg" width="1200" height="675" viewBox="0 0 1200 675" role="img" aria-label="Orcamento tecnico - Diagnostico antes do reparo">
  <defs>
    <linearGradient id="bg-budget" x1="0" x2="1" y1="0" y2="1">
      <stop offset="0" stop-color="#07111f"/>
      <stop offset="0.52" stop-color="#12314a"/>
      <stop offset="1" stop-color="#eef7ff"/>
    </linearGradient>
    <radialGradient id="glow" cx="62%" cy="34%" r="60%">
      <stop offset="0" stop-color="#ca8a04" stop-opacity="0.34"/>
      <stop offset="1" stop-color="#ca8a04" stop-opacity="0"/>
    </radialGradient>
    <pattern id="grid" width="38" height="38" patternUnits="userSpaceOnUse">
      <path d="M38 0H0V38" fill="none" stroke="#ffffff" stroke-opacity="0.08" stroke-width="1"/>
    </pattern>
    <filter id="shadow" x="-20%" y="-20%" width="140%" height="140%">
      <feDropShadow dx="0" dy="18" stdDeviation="18" flood-color="#020617" flood-opacity="0.28"/>
    </filter>
  </defs>
  <rect width="1200" height="675" fill="url(#bg-budget)"/>
  <rect width="1200" height="675" fill="url(#grid)"/>
  <circle cx="820" cy="180" r="320" fill="url(#glow)"/>
  <circle cx="1080" cy="90" r="120" fill="#2563eb" opacity="0.20"/>
  <circle cx="95" cy="575" r="190" fill="#ca8a04" opacity="0.16"/>
  <g filter="url(#shadow)">
    <rect x="270" y="118" width="360" height="438" rx="34" fill="#f8fafc"/>
    <rect x="336" y="92" width="226" height="74" rx="24" fill="#e2e8f0"/>
    <path d="M334 238h210M334 292h170M334 346h206M334 400h132" stroke="#334155" stroke-width="12" stroke-linecap="round" opacity="0.72"/>
    <circle cx="300" cy="238" r="13" fill="#ca8a04"/><circle cx="300" cy="292" r="13" fill="#ca8a04"/><circle cx="300" cy="346" r="13" fill="#2563eb"/><circle cx="300" cy="400" r="13" fill="#2563eb"/>
  </g>
  <g transform="translate(690 182)" filter="url(#shadow)">
    <rect width="274" height="220" rx="28" fill="#0f172a"/>
    <rect x="36" y="36" width="202" height="78" rx="18" fill="#dbeafe"/>
    <path d="M52 152h36M108 152h36M164 152h36M52 188h36M108 188h36M164 188h36" stroke="#f8fafc" stroke-width="12" stroke-linecap="round"/>
  </g>
  <g transform="translate(74 68)">
    <rect width="176" height="48" rx="14" fill="#ffffff" opacity="0.94"/>
    <circle cx="31" cy="24" r="13" fill="#ca8a04"/>
    <path d="M55 18h88M55 30h66" stroke="#0f172a" stroke-width="7" stroke-linecap="round" opacity="0.88"/>
  </g>
  <g transform="translate(74 524)">
    <text font-family="Arial, Helvetica, sans-serif" font-size="48" font-weight="800" fill="#ffffff">Orcamento tecnico</text>
    <text y="42" font-family="Arial, Helvetica, sans-serif" font-size="24" font-weight="600" fill="#dbeafe">Diagnostico antes do reparo</text>
  </g>
  <g transform="translate(835 515)">
    <rect width="286" height="72" rx="24" fill="#ffffff" opacity="0.94"/>
    <text x="32" y="45" font-family="Arial, Helvetica, sans-serif" font-size="24" font-weight="800" fill="#0f172a">Custo x viabilidade</text>
  </g>
</svg>
