<svg xmlns="http://www.w3.org/2000/svg" width="1200" height="675" viewBox="0 0 1200 675" role="img" aria-label="TV Samsung - Servico tecnico independente">
  <defs>
    <linearGradient id="bg-tvBrand" x1="0" x2="1" y1="0" y2="1">
      <stop offset="0" stop-color="#07111f"/>
      <stop offset="0.52" stop-color="#12314a"/>
      <stop offset="1" stop-color="#eef7ff"/>
    </linearGradient>
    <radialGradient id="glow" cx="62%" cy="34%" r="60%">
      <stop offset="0" stop-color="#2563eb" stop-opacity="0.34"/>
      <stop offset="1" stop-color="#2563eb" stop-opacity="0"/>
    </radialGradient>
    <pattern id="grid" width="38" height="38" patternUnits="userSpaceOnUse">
      <path d="M38 0H0V38" fill="none" stroke="#ffffff" stroke-opacity="0.08" stroke-width="1"/>
    </pattern>
    <filter id="shadow" x="-20%" y="-20%" width="140%" height="140%">
      <feDropShadow dx="0" dy="18" stdDeviation="18" flood-color="#020617" flood-opacity="0.28"/>
    </filter>
  </defs>
  <rect width="1200" height="675" fill="url(#bg-tvBrand)"/>
  <rect width="1200" height="675" fill="url(#grid)"/>
  <circle cx="820" cy="180" r="320" fill="url(#glow)"/>
  <circle cx="1080" cy="90" r="120" fill="#14b8a6" opacity="0.20"/>
  <circle cx="95" cy="575" r="190" fill="#2563eb" opacity="0.16"/>
  <g filter="url(#shadow)">
    <rect x="255" y="128" width="610" height="344" rx="34" fill="#e5eef8"/>
    <rect x="286" y="160" width="548" height="270" rx="22" fill="#0b1220"/>
    <path d="M362 384c86-68 198-72 296-8" fill="none" stroke="#2563eb" stroke-width="12" stroke-linecap="round" opacity="0.72"/>
    <path d="M364 204h298M364 242h214M364 280h144" stroke="#ffffff" stroke-width="10" stroke-linecap="round" opacity="0.16"/>
    <text x="405" y="308" font-family="Arial, Helvetica, sans-serif" font-size="58" font-weight="800" fill="#ffffff" opacity="0.9">Samsung</text>

    <path d="M488 473h144l28 58H460z" fill="#cbd5e1"/>
    <rect x="408" y="531" width="304" height="26" rx="13" fill="#f8fafc"/>
    <circle cx="812" cy="449" r="12" fill="#2563eb">

    </circle>
  </g>
  <g transform="translate(760 222)" filter="url(#shadow)">
    <rect width="250" height="168" rx="24" fill="#ffffff" opacity="0.96"/>
    <path d="M38 58h174M38 92h118M38 126h146" stroke="#334155" stroke-width="10" stroke-linecap="round" opacity="0.7"/>
    <circle cx="204" cy="54" r="18" fill="#2563eb"/>
  </g>
  <g transform="translate(166 210)" opacity="0.95">
    <rect width="112" height="168" rx="20" fill="#f8fafc"/>
    <path d="M30 44h52M30 78h52M30 112h32" stroke="#0f172a" stroke-width="9" stroke-linecap="round" opacity="0.75"/>
    <circle cx="56" cy="142" r="12" fill="#14b8a6"/>
  </g>
  <g transform="translate(74 68)">
    <rect width="176" height="48" rx="14" fill="#ffffff" opacity="0.94"/>
    <circle cx="31" cy="24" r="13" fill="#2563eb"/>
    <path d="M55 18h88M55 30h66" stroke="#0f172a" stroke-width="7" stroke-linecap="round" opacity="0.88"/>
  </g>
  <g transform="translate(74 524)">
    <text font-family="Arial, Helvetica, sans-serif" font-size="48" font-weight="800" fill="#ffffff">TV Samsung</text>
    <text y="42" font-family="Arial, Helvetica, sans-serif" font-size="24" font-weight="600" fill="#dbeafe">Servico tecnico independente</text>
  </g>
  <g transform="translate(835 515)">
    <rect width="286" height="72" rx="24" fill="#ffffff" opacity="0.94"/>
    <text x="32" y="45" font-family="Arial, Helvetica, sans-serif" font-size="24" font-weight="800" fill="#0f172a">Marca + modelo</text>
  </g>
</svg>
